<svg id="Layer_1" data-name="Layer 1" xmlns="http://www.w3.org/2000/svg" viewBox="0 0 1500 1000"><defs><style>.cls-1{fill:#ee1c25;}.cls-2{fill:#0b4ea2;}.cls-3{fill:#fff;}</style></defs><rect class="cls-1" width="1500" height="1000"/><rect class="cls-2" width="1500" height="666.67"/><rect class="cls-3" width="1500" height="333.33"/><path id="_Path_" data-name="&lt;Path&gt;" class="cls-3" d="M655.8,235H243.93l-1.41,13.43c-.31,2.92-7.52,73.29-7.52,227.82,0,72.6,24.54,136.66,72.95,190.38,33.92,37.64,78.21,69.33,135.4,96.88l6.51,3.14,6.51-3.14c57.2-27.55,101.49-59.24,135.41-96.88,48.41-53.72,73-117.78,73-190.38,0-154.53-7.21-224.9-7.52-227.82L655.8,235Z"/><path class="cls-1" d="M449.86,750C367.63,710.39,250,631.77,250,476.25S257.43,250,257.43,250H642.29s7.44,70.73,7.44,226.25S532.1,710.39,449.86,750Z"/><path class="cls-3" d="M467.47,435.47c22.27.36,65.71,1.24,104.4-11.71,0,0-1,13.84-1,30s1,30,1,30c-35.49-11.88-79.3-12.12-104.4-11.81v85.9H432.3v-85.9c-25.09-.31-68.91-.07-104.39,11.81,0,0,1-13.84,1-30s-1-30-1-30c38.68,12.95,82.12,12.07,104.39,11.71V381.53c-20.29-.18-49.54.79-82.6,11.85,0,0,1-13.84,1-30s-1-30-1-30c33,11.05,62.22,12,82.51,11.86-1-34.16-11-77.22-11-77.22s20.49,1.6,28.67,1.6,28.68-1.6,28.68-1.6-9.95,43.06-11,77.22c20.29.17,49.5-.81,82.52-11.86,0,0-1,13.84-1,30s1,30,1,30c-33.07-11.07-62.31-12-82.61-11.86v54Z"/><path class="cls-2" d="M449.84,548.49c-41.42,0-63.61,57.45-63.61,57.45s-12.3-27.24-46.1-27.24c-22.86,0-39.71,20.33-50.42,39.16,41.6,66.18,108,107,160.13,132.14C502,724.87,568.43,684.05,610,617.86,599.31,599,582.46,578.7,559.6,578.7c-33.8,0-46.16,27.24-46.16,27.24s-22.18-57.45-63.6-57.45Z"/></svg>