<svg version="1.0" xmlns="http://www.w3.org/2000/svg"
 width="500px" height="500px" viewBox="0 0 1259.000000 1280.000000"
 preserveAspectRatio="xMidYMid meet">
<g transform="translate(0.000000,1280.000000) scale(0.100000,-0.100000)"
fill="#000000" stroke="none">
<path d="M7614 12377 c-844 -965 -1410 -1593 -1686 -1870 -81 -81 -144 -146
-140 -144 311 175 1013 545 1075 567 224 78 474 84 702 19 144 -42 224 -90
347 -208 62 -60 165 -166 228 -236 190 -209 317 -307 448 -343 94 -26 247 -20
462 19 151 27 211 33 325 33 125 1 149 -2 226 -26 95 -31 252 -105 469 -225
255 -140 391 -193 498 -193 209 0 407 136 518 355 28 55 56 115 62 134 l12 34
23 -20 c12 -11 330 -302 706 -647 376 -346 679 -622 675 -614 -5 7 -79 101
-165 208 -397 497 -931 1210 -1689 2259 l-364 503 -50 -53 c-28 -30 -142 -151
-253 -269 -216 -230 -717 -723 -740 -728 -22 -5 -137 119 -254 273 -213 282
-450 633 -864 1280 -109 171 -199 311 -200 312 -1 2 -168 -187 -371 -420z"/>
<path d="M5919 9004 c-270 -58 -502 -267 -584 -527 -139 -437 111 -893 555
-1013 101 -28 302 -26 404 4 270 78 471 278 552 547 22 75 27 110 27 210 1
183 -44 324 -147 469 -178 250 -505 375 -807 310z"/>
<path d="M4725 7776 c-230 -45 -476 -256 -1195 -1021 -460 -490 -527 -567
-644 -747 -124 -191 -169 -321 -168 -488 0 -137 22 -232 82 -355 107 -220 215
-310 770 -637 287 -169 521 -298 830 -457 l275 -142 1 -957 c0 -1014 0 -1021
47 -1122 48 -102 168 -188 317 -226 79 -20 255 -15 311 8 90 39 147 122 177
256 19 86 19 182 15 1853 l-3 856 -642 398 c-354 219 -649 403 -655 409 -14
12 -24 1 594 648 l302 317 57 -97 c31 -53 92 -155 137 -227 44 -71 120 -195
168 -275 131 -214 172 -249 325 -269 44 -6 311 -11 609 -12 569 -2 640 3 733
50 117 60 190 213 180 376 -11 161 -103 232 -365 280 -124 23 -485 30 -692 13
-161 -13 -164 -13 -176 7 -7 11 -47 88 -90 170 -181 351 -434 795 -558 980
-72 107 -151 189 -267 275 -178 132 -307 169 -475 136z"/>
<path d="M1990 4419 c-131 -14 -332 -57 -460 -99 -1112 -365 -1751 -1528
-1459 -2657 98 -381 299 -733 579 -1013 336 -336 765 -552 1245 -627 154 -24
488 -24 644 0 935 146 1666 843 1850 1762 156 783 -132 1608 -739 2117 -464
390 -1067 577 -1660 517z m583 -453 c550 -118 995 -462 1245 -961 86 -173 138
-340 168 -545 22 -157 16 -430 -15 -584 -146 -726 -714 -1285 -1440 -1418
-140 -26 -446 -31 -576 -9 -513 83 -940 355 -1226 780 -504 748 -356 1775 340
2355 259 216 548 345 896 401 145 23 458 14 608 -19z"/>
<path d="M7785 4418 c-312 -31 -653 -146 -924 -312 -293 -179 -576 -462 -743
-742 -216 -365 -318 -734 -318 -1149 0 -528 179 -1020 519 -1426 649 -776
1768 -1010 2671 -560 607 303 1039 852 1184 1504 40 179 50 279 50 482 0 363
-65 647 -224 970 -124 253 -244 418 -446 616 -364 355 -824 568 -1333 619
-121 12 -309 11 -436 -2z m435 -428 c449 -56 845 -265 1138 -600 561 -642 589
-1578 68 -2265 -245 -323 -630 -566 -1036 -653 -202 -44 -393 -52 -596 -27
-763 94 -1371 657 -1534 1420 -31 143 -39 447 -16 603 118 798 748 1418 1546
1521 95 12 333 13 430 1z"/>
</g>
</svg>
